
<svg xmlns="http://www.w3.org/2000/svg" xml:space="preserve" width="1.70666in" height="1.70666in" version="1.1" style="shape-rendering:geometricPrecision; text-rendering:geometricPrecision; image-rendering:optimizeQuality; fill-rule:evenodd; clip-rule:evenodd"
viewBox="0 0 1706.66 1706.66"
 xmlns:xlink="http://www.w3.org/1999/xlink"
 xmlns:xodm="http://www.corel.com/coreldraw/odm/2003">
 <defs>
  <style type="text/css">
   <![CDATA[
    .fil0 {fill:black}
   ]]>
  </style>
 </defs>
 <g id="Layer_x0020_1">
  <metadata id="CorelCorpID_0Corel-Layer"/>
  <path class="fil0" d="M853.33 1654.44c-11.04,0 -20,-8.97 -20,-20l0 -421.09c0,-26.33 40,-26.32 40,0l0 421.09c0,11.03 -8.94,20 -20,20z"/>
  <path class="fil0" d="M977.7 1654.44l-248.74 0c-53.44,0 -96.92,-43.47 -96.92,-96.92l0 -664.13c0,-26.33 40,-26.32 40,0l0 664.13c0,31.37 25.53,56.9 56.92,56.9l248.74 0.01c31.38,0 56.91,-25.53 56.91,-56.9l0 -664.14c0,-26.33 40,-26.32 40,0l0 664.13c0.02,53.45 -43.45,96.92 -96.9,96.92z"/>
  <path class="fil0" d="M1185.8 1233.34l-131.18 0c-26.33,0 -26.32,-40 0,-40l111.18 0 0 -506.74c0,-94.98 -77.26,-172.26 -172.26,-172.26l-280.4 0c-94.98,0 -172.26,77.28 -172.26,172.26l0 506.73 111.06 0c26.36,0 26.41,40 0.11,40l-131.19 0c-11.04,0 -20,-8.97 -20,-20l0 -526.74c0,-117.04 95.22,-212.26 212.26,-212.26l280.4 0c117.06,0 212.28,95.22 212.28,212.26l0 526.73c0.02,11.04 -8.96,20 -20,20z"/>
  <path class="fil0" d="M853.33 432.69c-104.89,0 -190.24,-85.35 -190.24,-190.24 0,-104.9 85.35,-190.23 190.24,-190.23 104.89,0 190.25,85.35 190.25,190.23 0,104.89 -85.35,190.24 -190.25,190.24zm0 -340.47c-82.83,0 -150.24,67.4 -150.24,150.23 0,82.83 67.4,150.24 150.24,150.24 82.83,0 150.24,-67.4 150.24,-150.24 0,-82.85 -67.39,-150.23 -150.24,-150.23z"/>
  <path class="fil0" d="M291.09 1654.44c-11.04,0 -20,-8.97 -20,-20l0 -343.25c0,-26.33 40,-26.32 40,0l0 343.25c0,11.02 -8.96,20 -20,20z"/>
  <path class="fil0" d="M392.47 1654.44l-202.76 0c-45.59,0 -82.69,-37.1 -82.69,-82.69l0 -541.38c0,-26.33 40,-26.32 40,0l0 541.37c0,23.53 19.16,42.67 42.69,42.67l202.76 0c23.54,0 42.69,-19.14 42.69,-42.67l0 -541.37c0,-26.33 40,-26.32 40,0l0 541.37c0,45.6 -37.08,82.7 -82.69,82.7z"/>
  <path class="fil0" d="M291.09 658.53c-87.54,0 -158.76,-71.22 -158.76,-158.76 0,-87.54 71.22,-158.76 158.76,-158.76 87.54,0 158.77,71.21 158.77,158.75 0,87.54 -71.22,158.78 -158.77,158.78zm0 -277.54c-65.48,0 -118.76,53.28 -118.76,118.77 0,65.49 53.28,118.76 118.76,118.76 65.49,0 118.77,-53.28 118.77,-118.76 0,-65.49 -53.28,-118.77 -118.77,-118.77z"/>
  <path class="fil0" d="M562.02 1311.19l-106.93 0c-26.33,0 -26.33,-40 0,-40l86.93 0c0,-37.28 -7.77,-77.82 20,-77.82 11.04,0 20,8.97 20,20l0 77.83c0,11.01 -8.96,19.99 -20,19.99zm-435.08 0l-106.94 0c-11.04,0 -20,-8.97 -20,-20l0 -429.39c0,-97.44 79.28,-176.72 176.74,-176.72l228.57 0c66.48,0 161.48,56.23 129.07,85.89 -28.96,26.51 -38.89,-45.91 -129.07,-45.91l-228.57 0.01c-75.39,0 -136.74,61.33 -136.74,136.72l0 409.37 86.85 -0.01c26.37,0 26.36,40.03 0.1,40.03z"/>
  <path class="fil0" d="M1415.64 1654.44c-11.04,0 -20,-8.97 -20,-20l0 -343.25c0,-26.33 40,-26.32 40,0l0 343.25c0.01,11.02 -8.96,20 -20,20z"/>
  <path class="fil0" d="M1517.03 1654.44l-202.78 0c-45.59,0 -82.69,-37.1 -82.69,-82.69l0 -541.38c0,-26.33 40,-26.32 40,0l0 541.37c0,23.53 19.14,42.67 42.68,42.67l202.78 0c23.54,0 42.68,-19.14 42.68,-42.67l-0 -541.37c0,-26.33 40,-26.32 40,0l0 541.37c0.03,45.6 -37.07,82.7 -82.67,82.7z"/>
  <path class="fil0" d="M1686.65 1311.19l-106.93 0c-26.33,0 -26.32,-40 0,-40l86.93 0 0 -409.39c0,-75.39 -61.33,-136.72 -136.72,-136.72l-228.56 0c-90.2,0 -100.07,72.41 -129.07,45.89 -32.41,-29.64 62.57,-85.9 129.07,-85.9l228.56 0c97.46,0 176.73,79.28 176.73,176.72l0 429.37c-0.01,11.05 -8.97,20.02 -20.01,20.02zm-435.08 0l-106.93 0c-11.04,0 -20,-8.97 -20,-20l0 -77.83c0,-26.35 40,-26.39 40,-0.07l0 57.9 86.85 0c26.35,0 26.38,40 0.08,40z"/>
  <path class="fil0" d="M1415.64 658.53c-87.54,0 -158.78,-71.22 -158.78,-158.76 0,-87.54 71.23,-158.76 158.78,-158.76 87.54,0 158.78,71.22 158.78,158.76 0,87.54 -71.23,158.76 -158.78,158.76zm0 -277.54c-65.48,0 -118.76,53.28 -118.76,118.77 0,65.49 53.27,118.76 118.76,118.76 65.49,0 118.76,-53.28 118.76,-118.76 0,-65.49 -53.28,-118.77 -118.76,-118.77z"/>
 </g>
</svg>
